<?xml version="1.0" encoding="UTF-8" standalone="no"?><svg xmlns="http://www.w3.org/2000/svg" xmlns:xlink="http://www.w3.org/1999/xlink" contentScriptType="application/ecmascript" contentStyleType="text/css" height="1245px" preserveAspectRatio="none" style="width:559px;height:1245px;" version="1.1" viewBox="0 0 559 1245" width="559px" zoomAndPan="magnify"><defs><filter height="300%" id="fjflmqvy52p16" width="300%" x="-1" y="-1"><feGaussianBlur result="blurOut" stdDeviation="2.0"/><feColorMatrix in="blurOut" result="blurOut2" type="matrix" values="0 0 0 0 0 0 0 0 0 0 0 0 0 0 0 0 0 0 .4 0"/><feOffset dx="4.0" dy="4.0" in="blurOut2" result="blurOut3"/><feBlend in="SourceGraphic" in2="blurOut3" mode="normal"/></filter></defs><g><!--MD5=[c51febf6c35a6094d2efc17e168c2e2a]
class sprints--><rect fill="#FEFECE" filter="url(#fjflmqvy52p16)" height="124.8281" id="sprints" style="stroke: #A80036; stroke-width: 1.5;" width="208" x="181" y="8"/><ellipse cx="259.25" cy="24" fill="#ADD1B2" rx="11" ry="11" style="stroke: #A80036; stroke-width: 1.0;"/><path d="M263.3594,30 L255.6406,30 L255.6406,17.6094 L263.3594,17.6094 L263.3594,19.7656 L258.0938,19.7656 L258.0938,22.4375 L262.8594,22.4375 L262.8594,24.5938 L258.0938,24.5938 L258.0938,27.8438 L263.3594,27.8438 L263.3594,30 Z "/><text fill="#000000" font-family="sans-serif" font-size="12" lengthAdjust="spacingAndGlyphs" textLength="43" x="279.75" y="28.1543">sprints</text><line style="stroke: #A80036; stroke-width: 1.5;" x1="182" x2="388" y1="40" y2="40"/><ellipse cx="192" cy="51" fill="#000000" rx="3" ry="3" style="stroke: #000000; stroke-width: 1.0;"/><text fill="#000000" font-family="sans-serif" font-size="11" lengthAdjust="spacingAndGlyphs" textLength="113" x="201" y="54.2104">id: UUID - NOT NULL</text><line style="stroke: #A80036; stroke-width: 1.0;" x1="182" x2="388" y1="60.8047" y2="60.8047"/><text fill="#000000" font-family="sans-serif" font-size="11" lengthAdjust="spacingAndGlyphs" textLength="179" x="187" y="75.0151">type: varchar(10) - (DEV,UX,SW)</text><text fill="#000000" font-family="sans-serif" font-size="11" lengthAdjust="spacingAndGlyphs" textLength="134" x="187" y="87.8198">number: int - NOT NULL</text><text fill="#000000" font-family="sans-serif" font-size="11" lengthAdjust="spacingAndGlyphs" textLength="98" x="187" y="100.6245">title: varchar (20)</text><text fill="#000000" font-family="sans-serif" font-size="11" lengthAdjust="spacingAndGlyphs" textLength="147" x="187" y="113.4292">description: varchar (200)</text><text fill="#000000" font-family="sans-serif" font-size="11" lengthAdjust="spacingAndGlyphs" textLength="196" x="187" y="126.2339">date: date - (default=current date)</text><!--MD5=[a3e7944a08da8a8e6989aa086a39f467]
class stories--><rect fill="#FEFECE" filter="url(#fjflmqvy52p16)" height="112.0234" id="stories" style="stroke: #A80036; stroke-width: 1.5;" width="209" x="259.5" y="511"/><ellipse cx="338.25" cy="527" fill="#ADD1B2" rx="11" ry="11" style="stroke: #A80036; stroke-width: 1.0;"/><path d="M342.3594,533 L334.6406,533 L334.6406,520.6094 L342.3594,520.6094 L342.3594,522.7656 L337.0938,522.7656 L337.0938,525.4375 L341.8594,525.4375 L341.8594,527.5938 L337.0938,527.5938 L337.0938,530.8438 L342.3594,530.8438 L342.3594,533 Z "/><text fill="#000000" font-family="sans-serif" font-size="12" lengthAdjust="spacingAndGlyphs" textLength="43" x="358.75" y="531.1543">stories</text><line style="stroke: #A80036; stroke-width: 1.5;" x1="260.5" x2="467.5" y1="543" y2="543"/><ellipse cx="270.5" cy="554" fill="#000000" rx="3" ry="3" style="stroke: #000000; stroke-width: 1.0;"/><text fill="#000000" font-family="sans-serif" font-size="11" lengthAdjust="spacingAndGlyphs" textLength="113" x="279.5" y="557.2104">id: UUID - NOT NULL</text><line style="stroke: #A80036; stroke-width: 1.0;" x1="260.5" x2="467.5" y1="563.8047" y2="563.8047"/><ellipse cx="270.5" cy="574.8047" fill="#000000" rx="3" ry="3" style="stroke: #000000; stroke-width: 1.0;"/><text fill="#000000" font-family="sans-serif" font-size="11" lengthAdjust="spacingAndGlyphs" textLength="183" x="279.5" y="578.0151">sprint_id: UUID - NOT NULL «FK»</text><text fill="#000000" font-family="sans-serif" font-size="11" lengthAdjust="spacingAndGlyphs" textLength="170" x="279.5" y="590.8198">ticket_number: int - NOT NULL</text><text fill="#000000" font-family="sans-serif" font-size="11" lengthAdjust="spacingAndGlyphs" textLength="143" x="279.5" y="603.6245">description: varchar(200)</text><text fill="#000000" font-family="sans-serif" font-size="11" lengthAdjust="spacingAndGlyphs" textLength="92" x="279.5" y="616.4292">story_points: int</text><!--MD5=[0b46d739c3fa314494bdbe3701820730]
class plannings--><rect fill="#FEFECE" filter="url(#fjflmqvy52p16)" height="99.2188" id="plannings" style="stroke: #A80036; stroke-width: 1.5;" width="209" x="15.5" y="517.5"/><ellipse cx="85.25" cy="533.5" fill="#ADD1B2" rx="11" ry="11" style="stroke: #A80036; stroke-width: 1.0;"/><path d="M89.3594,539.5 L81.6406,539.5 L81.6406,527.1094 L89.3594,527.1094 L89.3594,529.2656 L84.0938,529.2656 L84.0938,531.9375 L88.8594,531.9375 L88.8594,534.0938 L84.0938,534.0938 L84.0938,537.3438 L89.3594,537.3438 L89.3594,539.5 Z "/><text fill="#000000" font-family="sans-serif" font-size="12" lengthAdjust="spacingAndGlyphs" textLength="61" x="105.75" y="537.6543">plannings</text><line style="stroke: #A80036; stroke-width: 1.5;" x1="16.5" x2="223.5" y1="549.5" y2="549.5"/><ellipse cx="26.5" cy="560.5" fill="#000000" rx="3" ry="3" style="stroke: #000000; stroke-width: 1.0;"/><text fill="#000000" font-family="sans-serif" font-size="11" lengthAdjust="spacingAndGlyphs" textLength="113" x="35.5" y="563.7104">id: UUID - NOT NULL</text><line style="stroke: #A80036; stroke-width: 1.0;" x1="16.5" x2="223.5" y1="570.3047" y2="570.3047"/><ellipse cx="26.5" cy="581.3047" fill="#000000" rx="3" ry="3" style="stroke: #000000; stroke-width: 1.0;"/><text fill="#000000" font-family="sans-serif" font-size="11" lengthAdjust="spacingAndGlyphs" textLength="183" x="35.5" y="584.5151">sprint_id: UUID - NOT NULL «FK»</text><text fill="#000000" font-family="sans-serif" font-size="11" lengthAdjust="spacingAndGlyphs" textLength="143" x="35.5" y="597.3198">description: varchar(200)</text><text fill="#000000" font-family="sans-serif" font-size="11" lengthAdjust="spacingAndGlyphs" textLength="58" x="35.5" y="610.1245">date: date</text><!--MD5=[aa6a734a5f4e29f47c14f0e11d605b4a]
class planning_participants--><rect fill="#FEFECE" filter="url(#fjflmqvy52p16)" height="86.4141" id="planning_participants" style="stroke: #A80036; stroke-width: 1.5;" width="236" x="6" y="1148"/><ellipse cx="52.25" cy="1164" fill="#ADD1B2" rx="11" ry="11" style="stroke: #A80036; stroke-width: 1.0;"/><path d="M56.3594,1170 L48.6406,1170 L48.6406,1157.6094 L56.3594,1157.6094 L56.3594,1159.7656 L51.0938,1159.7656 L51.0938,1162.4375 L55.8594,1162.4375 L55.8594,1164.5938 L51.0938,1164.5938 L51.0938,1167.8438 L56.3594,1167.8438 L56.3594,1170 Z "/><text fill="#000000" font-family="sans-serif" font-size="12" lengthAdjust="spacingAndGlyphs" textLength="135" x="72.75" y="1168.1543">planning_participants</text><line style="stroke: #A80036; stroke-width: 1.5;" x1="7" x2="241" y1="1180" y2="1180"/><ellipse cx="17" cy="1191" fill="#000000" rx="3" ry="3" style="stroke: #000000; stroke-width: 1.0;"/><text fill="#000000" font-family="sans-serif" font-size="11" lengthAdjust="spacingAndGlyphs" textLength="113" x="26" y="1194.2104">id: UUID - NOT NULL</text><line style="stroke: #A80036; stroke-width: 1.0;" x1="7" x2="241" y1="1200.8047" y2="1200.8047"/><ellipse cx="17" cy="1211.8047" fill="#000000" rx="3" ry="3" style="stroke: #000000; stroke-width: 1.0;"/><text fill="#000000" font-family="sans-serif" font-size="11" lengthAdjust="spacingAndGlyphs" textLength="198" x="26" y="1215.0151">planning_id: UUID - NOT NULL «FK»</text><ellipse cx="17" cy="1224.6094" fill="#000000" rx="3" ry="3" style="stroke: #000000; stroke-width: 1.0;"/><text fill="#000000" font-family="sans-serif" font-size="11" lengthAdjust="spacingAndGlyphs" textLength="210" x="26" y="1227.8198">participant_id: UUID - NOT NULL «FK»</text><!--MD5=[b641a23a807d1190346279a14b3245ef]
class poker_rounds--><rect fill="#FEFECE" filter="url(#fjflmqvy52p16)" height="112.0234" id="poker_rounds" style="stroke: #A80036; stroke-width: 1.5;" width="224" x="232" y="683"/><ellipse cx="296.75" cy="699" fill="#ADD1B2" rx="11" ry="11" style="stroke: #A80036; stroke-width: 1.0;"/><path d="M300.8594,705 L293.1406,705 L293.1406,692.6094 L300.8594,692.6094 L300.8594,694.7656 L295.5938,694.7656 L295.5938,697.4375 L300.3594,697.4375 L300.3594,699.5938 L295.5938,699.5938 L295.5938,702.8438 L300.8594,702.8438 L300.8594,705 Z "/><text fill="#000000" font-family="sans-serif" font-size="12" lengthAdjust="spacingAndGlyphs" textLength="86" x="317.25" y="703.1543">poker_rounds</text><line style="stroke: #A80036; stroke-width: 1.5;" x1="233" x2="455" y1="715" y2="715"/><ellipse cx="243" cy="726" fill="#000000" rx="3" ry="3" style="stroke: #000000; stroke-width: 1.0;"/><text fill="#000000" font-family="sans-serif" font-size="11" lengthAdjust="spacingAndGlyphs" textLength="113" x="252" y="729.2104">id: UUID - NOT NULL</text><line style="stroke: #A80036; stroke-width: 1.0;" x1="233" x2="455" y1="735.8047" y2="735.8047"/><ellipse cx="243" cy="746.8047" fill="#000000" rx="3" ry="3" style="stroke: #000000; stroke-width: 1.0;"/><text fill="#000000" font-family="sans-serif" font-size="11" lengthAdjust="spacingAndGlyphs" textLength="198" x="252" y="750.0151">planning_id: UUID - NOT NULL «FK»</text><ellipse cx="243" cy="759.6094" fill="#000000" rx="3" ry="3" style="stroke: #000000; stroke-width: 1.0;"/><text fill="#000000" font-family="sans-serif" font-size="11" lengthAdjust="spacingAndGlyphs" textLength="179" x="252" y="762.8198">story_id: UUID - NOT NULL «FK»</text><text fill="#000000" font-family="sans-serif" font-size="11" lengthAdjust="spacingAndGlyphs" textLength="83" x="252" y="775.6245">avg_points: int</text><text fill="#000000" font-family="sans-serif" font-size="11" lengthAdjust="spacingAndGlyphs" textLength="151" x="252" y="788.4292">open: bool - (default=true)</text><!--MD5=[bd08c6e3be666505b2467d0946b43723]
class votes--><rect fill="#FEFECE" filter="url(#fjflmqvy52p16)" height="99.2188" id="votes" style="stroke: #A80036; stroke-width: 1.5;" width="247" x="220.5" y="855"/><ellipse cx="322.75" cy="871" fill="#ADD1B2" rx="11" ry="11" style="stroke: #A80036; stroke-width: 1.0;"/><path d="M326.8594,877 L319.1406,877 L319.1406,864.6094 L326.8594,864.6094 L326.8594,866.7656 L321.5938,866.7656 L321.5938,869.4375 L326.3594,869.4375 L326.3594,871.5938 L321.5938,871.5938 L321.5938,874.8438 L326.8594,874.8438 L326.8594,877 Z "/><text fill="#000000" font-family="sans-serif" font-size="12" lengthAdjust="spacingAndGlyphs" textLength="34" x="343.25" y="875.1543">votes</text><line style="stroke: #A80036; stroke-width: 1.5;" x1="221.5" x2="466.5" y1="887" y2="887"/><ellipse cx="231.5" cy="898" fill="#000000" rx="3" ry="3" style="stroke: #000000; stroke-width: 1.0;"/><text fill="#000000" font-family="sans-serif" font-size="11" lengthAdjust="spacingAndGlyphs" textLength="113" x="240.5" y="901.2104">id: UUID - NOT NULL</text><line style="stroke: #A80036; stroke-width: 1.0;" x1="221.5" x2="466.5" y1="907.8047" y2="907.8047"/><ellipse cx="231.5" cy="918.8047" fill="#000000" rx="3" ry="3" style="stroke: #000000; stroke-width: 1.0;"/><text fill="#000000" font-family="sans-serif" font-size="11" lengthAdjust="spacingAndGlyphs" textLength="221" x="240.5" y="922.0151">poker_round_id: UUID - NOT NULL «FK»</text><ellipse cx="231.5" cy="931.6094" fill="#000000" rx="3" ry="3" style="stroke: #000000; stroke-width: 1.0;"/><text fill="#000000" font-family="sans-serif" font-size="11" lengthAdjust="spacingAndGlyphs" textLength="210" x="240.5" y="934.8198">participant_id: UUID - NOT NULL «FK»</text><text fill="#000000" font-family="sans-serif" font-size="11" lengthAdjust="spacingAndGlyphs" textLength="120" x="240.5" y="947.6245">estimated_points: int</text><!--MD5=[b90d2aefcc7bf2091f3d5ce7aea07603]
class dailies--><rect fill="#FEFECE" filter="url(#fjflmqvy52p16)" height="86.4141" id="dailies" style="stroke: #A80036; stroke-width: 1.5;" width="209" x="338.5" y="193"/><ellipse cx="418.75" cy="209" fill="#ADD1B2" rx="11" ry="11" style="stroke: #A80036; stroke-width: 1.0;"/><path d="M422.8594,215 L415.1406,215 L415.1406,202.6094 L422.8594,202.6094 L422.8594,204.7656 L417.5938,204.7656 L417.5938,207.4375 L422.3594,207.4375 L422.3594,209.5938 L417.5938,209.5938 L417.5938,212.8438 L422.8594,212.8438 L422.8594,215 Z "/><text fill="#000000" font-family="sans-serif" font-size="12" lengthAdjust="spacingAndGlyphs" textLength="40" x="439.25" y="213.1543">dailies</text><line style="stroke: #A80036; stroke-width: 1.5;" x1="339.5" x2="546.5" y1="225" y2="225"/><ellipse cx="349.5" cy="236" fill="#000000" rx="3" ry="3" style="stroke: #000000; stroke-width: 1.0;"/><text fill="#000000" font-family="sans-serif" font-size="11" lengthAdjust="spacingAndGlyphs" textLength="113" x="358.5" y="239.2104">id: UUID - NOT NULL</text><line style="stroke: #A80036; stroke-width: 1.0;" x1="339.5" x2="546.5" y1="245.8047" y2="245.8047"/><ellipse cx="349.5" cy="256.8047" fill="#000000" rx="3" ry="3" style="stroke: #000000; stroke-width: 1.0;"/><text fill="#000000" font-family="sans-serif" font-size="11" lengthAdjust="spacingAndGlyphs" textLength="183" x="358.5" y="260.0151">sprint_id: UUID - NOT NULL «FK»</text><text fill="#000000" font-family="sans-serif" font-size="11" lengthAdjust="spacingAndGlyphs" textLength="58" x="358.5" y="272.8198">date: date</text><!--MD5=[b7b86b907f95f6f6d39a5d854195eb17]
class notes--><rect fill="#FEFECE" filter="url(#fjflmqvy52p16)" height="112.0234" id="notes" style="stroke: #A80036; stroke-width: 1.5;" width="210" x="338" y="339"/><ellipse cx="420.75" cy="355" fill="#ADD1B2" rx="11" ry="11" style="stroke: #A80036; stroke-width: 1.0;"/><path d="M424.8594,361 L417.1406,361 L417.1406,348.6094 L424.8594,348.6094 L424.8594,350.7656 L419.5938,350.7656 L419.5938,353.4375 L424.3594,353.4375 L424.3594,355.5938 L419.5938,355.5938 L419.5938,358.8438 L424.8594,358.8438 L424.8594,361 Z "/><text fill="#000000" font-family="sans-serif" font-size="12" lengthAdjust="spacingAndGlyphs" textLength="36" x="441.25" y="359.1543">notes</text><line style="stroke: #A80036; stroke-width: 1.5;" x1="339" x2="547" y1="371" y2="371"/><ellipse cx="349" cy="382" fill="#000000" rx="3" ry="3" style="stroke: #000000; stroke-width: 1.0;"/><text fill="#000000" font-family="sans-serif" font-size="11" lengthAdjust="spacingAndGlyphs" textLength="113" x="358" y="385.2104">id: UUID - NOT NULL</text><line style="stroke: #A80036; stroke-width: 1.0;" x1="339" x2="547" y1="391.8047" y2="391.8047"/><text fill="#000000" font-family="sans-serif" font-size="11" lengthAdjust="spacingAndGlyphs" textLength="176" x="344" y="406.0151">daily_id: UUID - NOT NULL «FK»</text><text fill="#000000" font-family="sans-serif" font-size="11" lengthAdjust="spacingAndGlyphs" textLength="170" x="344" y="418.8198">ticket_number: int - NOT NULL</text><text fill="#000000" font-family="sans-serif" font-size="11" lengthAdjust="spacingAndGlyphs" textLength="198" x="344" y="431.6245">overview: varchar(500) - NOT NULL</text><text fill="#000000" font-family="sans-serif" font-size="11" lengthAdjust="spacingAndGlyphs" textLength="184" x="344" y="444.4292">status: varchar(500) - NOT NULL</text><!--MD5=[edb2b3045389780c0c35398ee485946f]
class participants--><rect fill="#FEFECE" filter="url(#fjflmqvy52p16)" height="73.6094" id="participants" style="stroke: #A80036; stroke-width: 1.5;" width="202" x="243" y="1014"/><ellipse cx="302.25" cy="1030" fill="#ADD1B2" rx="11" ry="11" style="stroke: #A80036; stroke-width: 1.0;"/><path d="M306.3594,1036 L298.6406,1036 L298.6406,1023.6094 L306.3594,1023.6094 L306.3594,1025.7656 L301.0938,1025.7656 L301.0938,1028.4375 L305.8594,1028.4375 L305.8594,1030.5938 L301.0938,1030.5938 L301.0938,1033.8438 L306.3594,1033.8438 L306.3594,1036 Z "/><text fill="#000000" font-family="sans-serif" font-size="12" lengthAdjust="spacingAndGlyphs" textLength="75" x="322.75" y="1034.1543">participants</text><line style="stroke: #A80036; stroke-width: 1.5;" x1="244" x2="444" y1="1046" y2="1046"/><ellipse cx="254" cy="1057" fill="#000000" rx="3" ry="3" style="stroke: #000000; stroke-width: 1.0;"/><text fill="#000000" font-family="sans-serif" font-size="11" lengthAdjust="spacingAndGlyphs" textLength="113" x="263" y="1060.2104">id: UUID - NOT NULL</text><line style="stroke: #A80036; stroke-width: 1.0;" x1="244" x2="444" y1="1066.8047" y2="1066.8047"/><ellipse cx="254" cy="1077.8047" fill="#000000" rx="3" ry="3" style="stroke: #000000; stroke-width: 1.0;"/><text fill="#000000" font-family="sans-serif" font-size="11" lengthAdjust="spacingAndGlyphs" textLength="176" x="263" y="1081.0151">user_id: UUID - NOT NULL «FK»</text><!--MD5=[8413f8248b2da7966d2de021109ec289]
class users--><rect fill="#FEFECE" filter="url(#fjflmqvy52p16)" height="60.8047" id="users" style="stroke: #A80036; stroke-width: 1.5;" width="129" x="279.5" y="1160.5"/><ellipse cx="322.4" cy="1176.5" fill="#ADD1B2" rx="11" ry="11" style="stroke: #A80036; stroke-width: 1.0;"/><path d="M326.5094,1182.5 L318.7906,1182.5 L318.7906,1170.1094 L326.5094,1170.1094 L326.5094,1172.2656 L321.2438,1172.2656 L321.2438,1174.9375 L326.0094,1174.9375 L326.0094,1177.0938 L321.2438,1177.0938 L321.2438,1180.3438 L326.5094,1180.3438 L326.5094,1182.5 Z "/><text fill="#000000" font-family="sans-serif" font-size="12" lengthAdjust="spacingAndGlyphs" textLength="35" x="342.6" y="1180.6543">users</text><line style="stroke: #A80036; stroke-width: 1.5;" x1="280.5" x2="407.5" y1="1192.5" y2="1192.5"/><text fill="#000000" font-family="sans-serif" font-size="11" lengthAdjust="spacingAndGlyphs" textLength="117" x="285.5" y="1206.7104">DJANGO USER TABLE</text><line style="stroke: #A80036; stroke-width: 1.5;" x1="280.5" x2="407.5" y1="1213.3047" y2="1213.3047"/><!--MD5=[e0cd59a599bc29eb9d7e8c8ede7c5a27]
link sprints to stories--><path d="M298.75,141.13 C298.75,141.13 298.75,502.68 298.75,502.68 " fill="none" id="sprints-stories" style="stroke: #A80036; stroke-width: 1.0;"/><line style="stroke: #A80036; stroke-width: 1.0;" x1="298.75" x2="304.75" y1="502.68" y2="510.68"/><line style="stroke: #A80036; stroke-width: 1.0;" x1="298.75" x2="292.75" y1="502.68" y2="510.68"/><line style="stroke: #A80036; stroke-width: 1.0;" x1="298.75" x2="298.75" y1="502.68" y2="510.68"/><line style="stroke: #A80036; stroke-width: 1.0;" x1="302.75" x2="294.75" y1="500.68" y2="500.68"/><line style="stroke: #A80036; stroke-width: 1.0;" x1="294.75" x2="302.75" y1="137.13" y2="137.13"/><line style="stroke: #A80036; stroke-width: 1.0;" x1="294.75" x2="302.75" y1="140.13" y2="140.13"/><line style="stroke: #A80036; stroke-width: 1.0;" x1="298.75" x2="298.75" y1="141.13" y2="133.13"/><!--MD5=[dd2239346b53931736b87e1805695d01]
link sprints to plannings--><path d="M202.75,141.13 C202.75,141.13 202.75,509.27 202.75,509.27 " fill="none" id="sprints-plannings" style="stroke: #A80036; stroke-width: 1.0;"/><line style="stroke: #A80036; stroke-width: 1.0;" x1="202.75" x2="208.75" y1="509.27" y2="517.27"/><line style="stroke: #A80036; stroke-width: 1.0;" x1="202.75" x2="196.75" y1="509.27" y2="517.27"/><line style="stroke: #A80036; stroke-width: 1.0;" x1="202.75" x2="202.75" y1="509.27" y2="517.27"/><line style="stroke: #A80036; stroke-width: 1.0;" x1="206.75" x2="198.75" y1="507.27" y2="507.27"/><line style="stroke: #A80036; stroke-width: 1.0;" x1="198.75" x2="206.75" y1="137.13" y2="137.13"/><line style="stroke: #A80036; stroke-width: 1.0;" x1="198.75" x2="206.75" y1="140.13" y2="140.13"/><line style="stroke: #A80036; stroke-width: 1.0;" x1="202.75" x2="202.75" y1="141.13" y2="133.13"/><!--MD5=[62e724e44175d096b64e1a72848b6c7b]
link sprints to dailies--><path d="M363.75,141.07 C363.75,141.07 363.75,184.9 363.75,184.9 " fill="none" id="sprints-dailies" style="stroke: #A80036; stroke-width: 1.0;"/><line style="stroke: #A80036; stroke-width: 1.0;" x1="363.75" x2="369.75" y1="184.9" y2="192.9"/><line style="stroke: #A80036; stroke-width: 1.0;" x1="363.75" x2="357.75" y1="184.9" y2="192.9"/><line style="stroke: #A80036; stroke-width: 1.0;" x1="363.75" x2="363.75" y1="184.9" y2="192.9"/><line style="stroke: #A80036; stroke-width: 1.0;" x1="367.75" x2="359.75" y1="182.9" y2="182.9"/><line style="stroke: #A80036; stroke-width: 1.0;" x1="359.75" x2="367.75" y1="137.07" y2="137.07"/><line style="stroke: #A80036; stroke-width: 1.0;" x1="359.75" x2="367.75" y1="140.07" y2="140.07"/><line style="stroke: #A80036; stroke-width: 1.0;" x1="363.75" x2="363.75" y1="141.07" y2="133.07"/><!--MD5=[0e9d819bc3182f35b89e76b7513b78d0]
link stories to poker_rounds--><path d="M357.75,630.32 C357.75,630.32 357.75,675.85 357.75,675.85 " fill="none" id="stories-poker_rounds" style="stroke: #A80036; stroke-width: 1.0;"/><line style="stroke: #A80036; stroke-width: 1.0;" x1="361.75" x2="353.75" y1="678.85" y2="678.85"/><line style="stroke: #A80036; stroke-width: 1.0;" x1="361.75" x2="353.75" y1="675.85" y2="675.85"/><line style="stroke: #A80036; stroke-width: 1.0;" x1="357.75" x2="357.75" y1="674.85" y2="682.85"/><line style="stroke: #A80036; stroke-width: 1.0;" x1="353.75" x2="361.75" y1="627.32" y2="627.32"/><line style="stroke: #A80036; stroke-width: 1.0;" x1="353.75" x2="361.75" y1="630.32" y2="630.32"/><line style="stroke: #A80036; stroke-width: 1.0;" x1="357.75" x2="357.75" y1="631.32" y2="623.32"/><!--MD5=[b2b2c145193ff73bd4beee03d3180999]
link plannings to planning_participants--><path d="M118,624.75 C118,624.75 118,1139.86 118,1139.86 " fill="none" id="plannings-planning_participants" style="stroke: #A80036; stroke-width: 1.0;"/><line style="stroke: #A80036; stroke-width: 1.0;" x1="118" x2="124" y1="1139.86" y2="1147.86"/><line style="stroke: #A80036; stroke-width: 1.0;" x1="118" x2="112" y1="1139.86" y2="1147.86"/><line style="stroke: #A80036; stroke-width: 1.0;" x1="118" x2="118" y1="1139.86" y2="1147.86"/><line style="stroke: #A80036; stroke-width: 1.0;" x1="122" x2="114" y1="1137.86" y2="1137.86"/><line style="stroke: #A80036; stroke-width: 1.0;" x1="114" x2="122" y1="620.75" y2="620.75"/><line style="stroke: #A80036; stroke-width: 1.0;" x1="114" x2="122" y1="623.75" y2="623.75"/><line style="stroke: #A80036; stroke-width: 1.0;" x1="118" x2="118" y1="624.75" y2="616.75"/><!--MD5=[beb9c83b714aabbb264866ed9ae04b34]
link plannings to poker_rounds--><path d="M232.7,567 C232.7,567 245.75,567 245.75,567 C245.75,567 245.75,674.68 245.75,674.68 " fill="none" id="plannings-poker_rounds" style="stroke: #A80036; stroke-width: 1.0;"/><line style="stroke: #A80036; stroke-width: 1.0;" x1="245.75" x2="251.75" y1="674.68" y2="682.68"/><line style="stroke: #A80036; stroke-width: 1.0;" x1="245.75" x2="239.75" y1="674.68" y2="682.68"/><line style="stroke: #A80036; stroke-width: 1.0;" x1="245.75" x2="245.75" y1="674.68" y2="682.68"/><line style="stroke: #A80036; stroke-width: 1.0;" x1="249.75" x2="241.75" y1="672.68" y2="672.68"/><line style="stroke: #A80036; stroke-width: 1.0;" x1="228.7" x2="228.7" y1="571" y2="563"/><line style="stroke: #A80036; stroke-width: 1.0;" x1="231.7" x2="231.7" y1="571" y2="563"/><line style="stroke: #A80036; stroke-width: 1.0;" x1="232.7" x2="224.7" y1="567" y2="567"/><!--MD5=[35f4aa70884d0dc13b66694ae19ea64f]
link poker_rounds to votes--><path d="M344,803.03 C344,803.03 344,846.91 344,846.91 " fill="none" id="poker_rounds-votes" style="stroke: #A80036; stroke-width: 1.0;"/><line style="stroke: #A80036; stroke-width: 1.0;" x1="344" x2="350" y1="846.91" y2="854.91"/><line style="stroke: #A80036; stroke-width: 1.0;" x1="344" x2="338" y1="846.91" y2="854.91"/><line style="stroke: #A80036; stroke-width: 1.0;" x1="344" x2="344" y1="846.91" y2="854.91"/><line style="stroke: #A80036; stroke-width: 1.0;" x1="348" x2="340" y1="844.91" y2="844.91"/><line style="stroke: #A80036; stroke-width: 1.0;" x1="340" x2="348" y1="799.03" y2="799.03"/><line style="stroke: #A80036; stroke-width: 1.0;" x1="340" x2="348" y1="802.03" y2="802.03"/><line style="stroke: #A80036; stroke-width: 1.0;" x1="344" x2="344" y1="803.03" y2="795.03"/><!--MD5=[1fb668d4defe236080554282cccad85b]
link votes to participants--><path d="M344,962.1 C344,962.1 344,1005.96 344,1005.96 " fill="none" id="votes-participants" style="stroke: #A80036; stroke-width: 1.0;"/><line style="stroke: #A80036; stroke-width: 1.0;" x1="344" x2="350" y1="1005.96" y2="1013.96"/><line style="stroke: #A80036; stroke-width: 1.0;" x1="344" x2="338" y1="1005.96" y2="1013.96"/><line style="stroke: #A80036; stroke-width: 1.0;" x1="344" x2="344" y1="1005.96" y2="1013.96"/><line style="stroke: #A80036; stroke-width: 1.0;" x1="348" x2="340" y1="1003.96" y2="1003.96"/><line style="stroke: #A80036; stroke-width: 1.0;" x1="340" x2="348" y1="958.1" y2="958.1"/><line style="stroke: #A80036; stroke-width: 1.0;" x1="340" x2="348" y1="961.1" y2="961.1"/><line style="stroke: #A80036; stroke-width: 1.0;" x1="344" x2="344" y1="962.1" y2="954.1"/><!--MD5=[7e8b900ee7d388ff2a31541502545937]
link dailies to notes--><path d="M443,287.03 C443,287.03 443,330.78 443,330.78 " fill="none" id="dailies-notes" style="stroke: #A80036; stroke-width: 1.0;"/><line style="stroke: #A80036; stroke-width: 1.0;" x1="443" x2="449" y1="330.78" y2="338.78"/><line style="stroke: #A80036; stroke-width: 1.0;" x1="443" x2="437" y1="330.78" y2="338.78"/><line style="stroke: #A80036; stroke-width: 1.0;" x1="443" x2="443" y1="330.78" y2="338.78"/><line style="stroke: #A80036; stroke-width: 1.0;" x1="447" x2="439" y1="328.78" y2="328.78"/><line style="stroke: #A80036; stroke-width: 1.0;" x1="439" x2="447" y1="283.03" y2="283.03"/><line style="stroke: #A80036; stroke-width: 1.0;" x1="439" x2="447" y1="286.03" y2="286.03"/><line style="stroke: #A80036; stroke-width: 1.0;" x1="443" x2="443" y1="287.03" y2="279.03"/><!--MD5=[98b64dafe555c92667c3207ce373da90]
link notes to participants--><path d="M508.25,458.21 C508.25,458.21 508.25,1051 508.25,1051 C508.25,1051 452.22,1051 452.22,1051 " fill="none" id="notes-participants" style="stroke: #A80036; stroke-width: 1.0;"/><line style="stroke: #A80036; stroke-width: 1.0;" x1="449.22" x2="449.22" y1="1055" y2="1047"/><line style="stroke: #A80036; stroke-width: 1.0;" x1="452.22" x2="452.22" y1="1055" y2="1047"/><line style="stroke: #A80036; stroke-width: 1.0;" x1="453.22" x2="445.22" y1="1051" y2="1051"/><line style="stroke: #A80036; stroke-width: 1.0;" x1="504.25" x2="512.25" y1="455.21" y2="455.21"/><line style="stroke: #A80036; stroke-width: 1.0;" x1="504.25" x2="512.25" y1="458.21" y2="458.21"/><line style="stroke: #A80036; stroke-width: 1.0;" x1="508.25" x2="508.25" y1="459.21" y2="451.21"/><!--MD5=[7a4460edfeb4b82c9ae62c3c5f3b0230]
link notes to stories--><path d="M403.25,458.32 C403.25,458.32 403.25,503.85 403.25,503.85 " fill="none" id="notes-stories" style="stroke: #A80036; stroke-width: 1.0;"/><line style="stroke: #A80036; stroke-width: 1.0;" x1="407.25" x2="399.25" y1="506.85" y2="506.85"/><line style="stroke: #A80036; stroke-width: 1.0;" x1="407.25" x2="399.25" y1="503.85" y2="503.85"/><line style="stroke: #A80036; stroke-width: 1.0;" x1="403.25" x2="403.25" y1="502.85" y2="510.85"/><line style="stroke: #A80036; stroke-width: 1.0;" x1="399.25" x2="407.25" y1="455.32" y2="455.32"/><line style="stroke: #A80036; stroke-width: 1.0;" x1="399.25" x2="407.25" y1="458.32" y2="458.32"/><line style="stroke: #A80036; stroke-width: 1.0;" x1="403.25" x2="403.25" y1="459.32" y2="451.32"/><!--MD5=[ccbba1579d3f217c6e192384c9ce7ee2]
link participants to planning_participants--><path d="M261.25,1096.25 C261.25,1096.25 261.25,1155 261.25,1155 C261.25,1155 250.17,1155 250.17,1155 " fill="none" id="participants-planning_participants" style="stroke: #A80036; stroke-width: 1.0;"/><line style="stroke: #A80036; stroke-width: 1.0;" x1="250.17" x2="242.17" y1="1155" y2="1161"/><line style="stroke: #A80036; stroke-width: 1.0;" x1="250.17" x2="242.17" y1="1155" y2="1149"/><line style="stroke: #A80036; stroke-width: 1.0;" x1="250.17" x2="242.17" y1="1155" y2="1155"/><line style="stroke: #A80036; stroke-width: 1.0;" x1="252.17" x2="252.17" y1="1159" y2="1151"/><line style="stroke: #A80036; stroke-width: 1.0;" x1="257.25" x2="265.25" y1="1092.25" y2="1092.25"/><line style="stroke: #A80036; stroke-width: 1.0;" x1="257.25" x2="265.25" y1="1095.25" y2="1095.25"/><line style="stroke: #A80036; stroke-width: 1.0;" x1="261.25" x2="261.25" y1="1096.25" y2="1088.25"/><!--MD5=[52404f9061835149ff19125a84734eb3]
link participants to users--><path d="M344,1095.15 C344,1095.15 344,1153.3 344,1153.3 " fill="none" id="participants-users" style="stroke: #A80036; stroke-width: 1.0;"/><line style="stroke: #A80036; stroke-width: 1.0;" x1="348" x2="340" y1="1156.3" y2="1156.3"/><line style="stroke: #A80036; stroke-width: 1.0;" x1="348" x2="340" y1="1153.3" y2="1153.3"/><line style="stroke: #A80036; stroke-width: 1.0;" x1="344" x2="344" y1="1152.3" y2="1160.3"/><line style="stroke: #A80036; stroke-width: 1.0;" x1="340" x2="348" y1="1092.15" y2="1092.15"/><line style="stroke: #A80036; stroke-width: 1.0;" x1="340" x2="348" y1="1095.15" y2="1095.15"/><line style="stroke: #A80036; stroke-width: 1.0;" x1="344" x2="344" y1="1096.15" y2="1088.15"/><!--MD5=[0788ccc2a684de4e8b7f361bb5c38e80]
@startuml


skinparam linetype ortho

entity "sprints" as sprints {
  *id: UUID - NOT NULL
  - -
  type: varchar(10) - (DEV,UX,SW)
  number: int - NOT NULL
  title: varchar (20)
  description: varchar (200)
  date: date - (default=current date)
}

entity "stories" as stories {
  *id: UUID - NOT NULL
  - -
  *sprint_id: UUID - NOT NULL <<FK>>
  ticket_number: int - NOT NULL
  description: varchar(200)
  story_points: int
}

entity "plannings" as plannings {
  *id: UUID - NOT NULL
  - -
  *sprint_id: UUID - NOT NULL <<FK>>
  description: varchar(200)
  date: date
}

entity "planning_participants" as planning_participants{
  *id: UUID - NOT NULL
  - -
  *planning_id: UUID - NOT NULL <<FK>>
  *participant_id: UUID - NOT NULL <<FK>>
}

entity "poker_rounds" as poker_rounds{
  *id: UUID - NOT NULL
  - -
  *planning_id: UUID - NOT NULL <<FK>>
  *story_id: UUID - NOT NULL <<FK>>
  avg_points: int
  open: bool - (default=true)
}

entity "votes" as votes{
  *id: UUID - NOT NULL
  - -
  *poker_round_id: UUID - NOT NULL <<FK>>
  *participant_id: UUID - NOT NULL <<FK>>
  estimated_points: int
}

entity "dailies" as dailies {
  *id: UUID - NOT NULL
  - -
  *sprint_id: UUID - NOT NULL <<FK>>
  date: date
}

entity "notes" as notes{
  *id: UUID - NOT NULL
  - -
  daily_id: UUID - NOT NULL <<FK>>
  ticket_number: int - NOT NULL
  overview: varchar(500) - NOT NULL
  status: varchar(500) - NOT NULL
}

entity "participants" as participants {
  *id: UUID - NOT NULL
  - -
  *user_id: UUID - NOT NULL <<FK>>
}

entity "users" as users{
  DJANGO USER TABLE
}

sprints ||- -|{ stories
sprints ||- -|{ plannings
sprints ||- -|{ dailies

stories ||- -|| poker_rounds

plannings ||- -|{ planning_participants
plannings ||- -|{ poker_rounds

poker_rounds ||- -|{ votes

votes ||- -|{ participants

dailies ||- -|{ notes

notes ||- -|| participants
notes ||- -|| stories

participants ||- -|{ planning_participants

participants ||- -|| users


@enduml

PlantUML version 1.2020.02(Sun Mar 01 10:22:07 GMT 2020)
(GPL source distribution)
Java Runtime: OpenJDK Runtime Environment
JVM: OpenJDK 64-Bit Server VM
Java Version: 11.0.9+11-Ubuntu-0ubuntu1
Operating System: Linux
Default Encoding: ANSI_X3.4-1968
Language: en
Country: US
--></g></svg>